<svg version="1.1" id="Layer_1" xmlns="http://www.w3.org/2000/svg" xmlns:xlink="http://www.w3.org/1999/xlink" x="0px" y="0px"
	 width="100%" viewBox="0 0 500 500" enable-background="new 0 0 500 500" xml:space="preserve">
<path fill="#FEFEFE" opacity="1.000000" stroke="none" 
	d="
M93.000000,501.000000 
	C62.349426,501.000000 31.698853,501.000000 1.024139,501.000000 
	C1.024139,334.436890 1.024139,167.873779 1.024139,1.000000 
	C81.353958,1.000000 161.708328,1.000000 242.473816,1.375206 
	C242.369522,3.746714 241.288956,5.781390 241.421524,7.733686 
	C244.522507,53.400131 247.802002,99.054466 250.888306,144.721863 
	C251.192215,149.218964 252.498581,151.626404 257.393066,151.225235 
	C260.370148,150.981216 263.397308,151.005768 266.377930,151.229797 
	C270.599243,151.547089 272.402008,149.657486 272.785095,145.565292 
	C274.087769,131.650528 275.562408,117.751961 276.942169,103.844307 
	C280.079651,72.218971 283.248627,40.596523 286.236328,8.956996 
	C286.480927,6.366678 285.442322,3.655187 285.000000,1.000001 
	C356.958313,1.000000 428.916626,1.000000 500.937469,1.000000 
	C500.937469,167.666656 500.937469,334.333313 500.937469,501.000000 
	C487.922333,501.000000 474.929810,501.000000 461.558533,500.615784 
	C461.806793,498.124878 462.975159,496.019653 462.980774,493.911316 
	C463.088593,453.417694 463.054565,412.923767 463.067993,372.429871 
	C463.069305,368.432343 462.818878,364.388641 463.312073,360.444763 
	C466.988159,331.049561 470.845062,301.677063 474.598633,272.291473 
	C476.876587,254.458008 479.343140,236.642288 481.210663,218.764893 
	C482.515472,206.274551 473.915802,195.970932 461.516327,194.041687 
	C449.628479,192.192062 438.512451,199.798630 435.950836,211.919128 
	C434.611694,218.255219 433.934967,224.731110 432.953644,231.143036 
	C432.044830,237.081192 431.128906,243.018234 430.160583,249.317108 
	C404.999298,231.044250 375.977020,235.264481 357.274780,251.770004 
	C339.529846,267.430664 333.451904,294.829315 343.461304,316.593445 
	C348.931641,328.488007 357.351593,337.705505 368.986206,343.718628 
	C384.068573,351.513672 399.745178,352.053436 416.285248,346.080231 
	C415.650879,350.200958 415.133850,353.559509 414.582306,357.142365 
	C398.873444,357.142365 383.558777,357.140289 368.244110,357.143219 
	C360.157928,357.144775 352.880310,359.411011 346.575378,364.644135 
	C343.033813,367.583710 339.323486,370.319977 335.607056,373.211761 
	C326.022003,361.421875 313.724396,356.908722 299.234406,357.106995 
	C284.905914,357.303131 270.569977,356.978088 256.242401,357.204376 
	C246.854538,357.352631 237.475754,358.074646 227.665710,358.560883 
	C228.095566,349.749146 228.574142,339.938843 229.103714,329.083038 
	C240.061859,341.853638 253.032227,348.562469 268.394562,349.885590 
	C295.976105,352.261169 321.326782,333.672028 327.839264,306.858124 
	C334.300598,280.254822 320.306671,252.588318 294.435730,242.150375 
	C289.055786,239.979736 287.311340,237.268524 287.061096,231.845154 
	C285.927795,207.280533 274.262482,188.142868 255.374481,173.197601 
	C238.273788,159.666595 217.774734,155.335464 196.762711,152.991043 
	C172.695511,150.305740 148.543488,150.226852 124.426170,152.111725 
	C107.157448,153.461365 89.986343,155.772705 73.958549,162.984604 
	C50.482513,173.547974 34.509563,190.877136 27.513361,215.851639 
	C23.741280,229.316940 23.341278,243.131409 25.049360,256.977539 
	C26.962460,272.485626 31.242935,287.248993 39.780613,300.499329 
	C40.658859,301.862335 42.902294,303.172577 44.396263,303.053406 
	C45.616776,302.956024 46.778145,300.764282 47.734943,299.345459 
	C48.147957,298.733032 47.918282,297.715851 48.083721,296.903564 
	C51.199886,281.603607 53.608253,266.072479 61.131561,252.085266 
	C65.034477,244.829010 70.428017,238.968445 78.600288,235.579453 
	C78.775696,236.728134 78.927956,237.347626 78.957428,237.972916 
	C79.906464,258.108185 80.844513,278.243988 81.782486,298.379761 
	C84.836716,363.946106 87.874550,429.513184 91.018684,495.075195 
	C91.114693,497.077209 92.314697,499.026245 93.000000,501.000000 
M375.013184,166.620956 
	C378.196899,169.704041 380.881470,169.915726 384.219879,166.292267 
	C416.267059,131.508957 448.464630,96.864250 480.596954,62.159275 
	C484.407074,58.044098 484.184662,56.418694 479.480438,52.993229 
	C471.274323,47.017860 463.032104,41.092083 454.805847,35.144356 
	C449.053711,30.985472 448.079742,31.138210 444.166840,36.947784 
	C419.808075,73.113853 395.421967,109.261566 371.119202,145.465225 
	C362.093903,158.910141 361.835388,156.012146 375.013184,166.620956 
M88.173447,48.290508 
	C83.417664,40.874794 78.679535,33.447678 73.899101,26.047886 
	C71.275696,21.987032 69.245514,21.711027 65.557411,25.058493 
	C57.055267,32.775356 48.595943,40.539783 40.160561,48.329647 
	C35.783005,52.372211 35.756401,53.685444 39.936028,58.108009 
	C50.335693,69.112137 60.772381,80.081276 71.196274,91.062508 
	C87.120911,107.838577 103.087036,124.575592 118.937469,141.421463 
	C121.903664,144.573944 124.500702,145.111191 127.816895,142.028687 
	C130.367310,139.657990 133.242981,137.638107 135.964355,135.450226 
	C140.978668,131.418945 141.125854,130.542297 137.696457,125.209877 
	C121.332237,99.764931 104.966324,74.321083 88.173447,48.290508 
M361.223999,69.780426 
	C366.083099,61.647461 370.946869,53.517277 375.798553,45.379887 
	C377.299866,42.861877 378.890167,40.003330 375.609100,37.969906 
	C372.383179,35.970634 370.485474,38.428726 368.937531,41.047115 
	C357.857483,59.789497 346.765930,78.525124 335.643280,97.242233 
	C334.112396,99.818436 332.532990,102.610214 335.902618,104.569359 
	C339.189941,106.480621 340.997192,103.859245 342.526703,101.279381 
	C348.629669,90.985420 354.767853,80.712372 361.223999,69.780426 
M176.029800,88.535728 
	C177.756607,92.677704 179.450851,96.833672 181.222168,100.956520 
	C182.322601,103.517899 183.837326,106.178947 187.095291,104.857307 
	C190.619522,103.427666 189.754074,100.456490 188.567169,97.661179 
	C180.060913,77.628197 171.564941,57.590778 163.107086,37.537319 
	C161.951553,34.797543 160.725693,31.757032 157.128510,33.275318 
	C153.708939,34.718647 154.545822,37.661877 155.767822,40.524334 
	C162.488129,56.265980 169.114304,72.047806 176.029800,88.535728 
M478.541046,143.857147 
	C476.723358,144.186417 474.580719,144.005936 473.139008,144.925018 
	C460.808624,152.785690 448.532043,160.738342 436.455811,168.980637 
	C434.933533,170.019592 433.499420,173.323929 434.054688,174.830460 
	C435.248596,178.070068 438.148682,177.373795 440.665588,175.703979 
	C452.989410,167.527924 465.288208,159.313461 477.668182,151.223236 
	C480.680084,149.254990 481.306305,147.131363 478.541046,143.857147 
M50.531826,132.055267 
	C47.130749,130.336044 43.861332,128.198105 40.274323,127.070213 
	C38.416981,126.486198 35.996826,127.692093 33.830940,128.089325 
	C34.746342,130.091385 35.117973,133.073486 36.667255,133.933121 
	C45.354721,138.753372 54.310902,143.092468 63.210648,147.524933 
	C65.700829,148.765137 68.578255,148.890900 69.305580,145.809402 
	C69.658836,144.312759 68.042725,141.507202 66.528397,140.569107 
	C61.613983,137.524750 56.334511,135.069702 50.531826,132.055267 
z"/>
<path fill="#41362C" opacity="1.000000" stroke="none" 
	d="
M93.468658,501.000000 
	C92.314697,499.026245 91.114693,497.077209 91.018684,495.075195 
	C87.874550,429.513184 84.836716,363.946106 81.782486,298.379761 
	C80.844513,278.243988 79.906464,258.108185 78.957428,237.972916 
	C78.927956,237.347626 78.775696,236.728134 78.600288,235.579453 
	C70.428017,238.968445 65.034477,244.829010 61.131561,252.085266 
	C53.608253,266.072479 51.199886,281.603607 48.083721,296.903564 
	C47.918282,297.715851 48.147957,298.733032 47.734943,299.345459 
	C46.778145,300.764282 45.616776,302.956024 44.396263,303.053406 
	C42.902294,303.172577 40.658859,301.862335 39.780613,300.499329 
	C31.242935,287.248993 26.962460,272.485626 25.049360,256.977539 
	C23.341278,243.131409 23.741280,229.316940 27.513361,215.851639 
	C34.509563,190.877136 50.482513,173.547974 73.958549,162.984604 
	C89.986343,155.772705 107.157448,153.461365 124.426170,152.111725 
	C148.543488,150.226852 172.695511,150.305740 196.762711,152.991043 
	C217.774734,155.335464 238.273788,159.666595 255.374481,173.197601 
	C274.262482,188.142868 285.927795,207.280533 287.061096,231.845154 
	C287.311340,237.268524 289.055786,239.979736 294.435730,242.150375 
	C320.306671,252.588318 334.300598,280.254822 327.839264,306.858124 
	C321.326782,333.672028 295.976105,352.261169 268.394562,349.885590 
	C253.032227,348.562469 240.061859,341.853638 229.103714,329.083038 
	C228.574142,339.938843 228.095566,349.749146 227.665710,358.560883 
	C237.475754,358.074646 246.854538,357.352631 256.242401,357.204376 
	C270.569977,356.978088 284.905914,357.303131 299.234406,357.106995 
	C313.724396,356.908722 326.022003,361.421875 335.607056,373.211761 
	C339.323486,370.319977 343.033813,367.583710 346.575378,364.644135 
	C352.880310,359.411011 360.157928,357.144775 368.244110,357.143219 
	C383.558777,357.140289 398.873444,357.142365 414.582306,357.142365 
	C415.133850,353.559509 415.650879,350.200958 416.285248,346.080231 
	C399.745178,352.053436 384.068573,351.513672 368.986206,343.718628 
	C357.351593,337.705505 348.931641,328.488007 343.461304,316.593445 
	C333.451904,294.829315 339.529846,267.430664 357.274780,251.770004 
	C375.977020,235.264481 404.999298,231.044250 430.160583,249.317108 
	C431.128906,243.018234 432.044830,237.081192 432.953644,231.143036 
	C433.934967,224.731110 434.611694,218.255219 435.950836,211.919128 
	C438.512451,199.798630 449.628479,192.192062 461.516327,194.041687 
	C473.915802,195.970932 482.515472,206.274551 481.210663,218.764893 
	C479.343140,236.642288 476.876587,254.458008 474.598633,272.291473 
	C470.845062,301.677063 466.988159,331.049561 463.312073,360.444763 
	C462.818878,364.388641 463.069305,368.432343 463.067993,372.429871 
	C463.054565,412.923767 463.088593,453.417694 462.980774,493.911316 
	C462.975159,496.019653 461.806793,498.124878 461.089874,500.615784 
	C338.645782,501.000000 216.291550,501.000000 93.468658,501.000000 
M313.652313,319.721008 
	C314.527039,317.872833 315.401733,316.024628 316.190247,314.006500 
	C316.190247,314.006500 316.258972,314.176392 316.849243,313.815033 
	C317.621796,311.566193 318.394348,309.317352 319.075104,307.028534 
	C319.075104,307.028534 319.111755,307.121674 319.574799,306.764893 
	C319.661896,306.200195 319.748962,305.635468 320.083466,304.252411 
	C323.718781,285.979980 318.494293,270.577393 305.228516,257.646393 
	C288.585907,241.423737 257.089905,241.435562 240.303146,258.095856 
	C237.331741,261.731079 234.360336,265.366302 231.097366,269.473328 
	C231.062729,269.654907 231.028091,269.836487 230.535141,270.377075 
	C230.330139,270.909515 230.125137,271.441956 229.992691,271.990570 
	C229.992691,271.990570 229.948471,271.930786 229.422714,272.396851 
	C228.318726,275.591248 227.214737,278.785645 225.830994,282.776611 
	C221.995117,301.028503 227.238815,316.513672 240.093689,330.420044 
	C245.754776,338.654968 253.575668,342.475739 264.408173,341.744507 
	C271.918854,341.104156 279.429565,340.463776 287.531494,339.862274 
	C288.032959,339.603790 288.534424,339.345306 289.740967,339.059052 
	C290.981415,338.423981 292.221863,337.788910 293.764709,337.169403 
	C293.764709,337.169403 294.004456,336.984497 294.601227,336.921875 
	C295.159454,336.425049 295.717682,335.928223 296.375244,335.399078 
	C296.375244,335.399078 296.476135,335.372192 297.124542,335.322052 
	C299.182495,333.939453 301.240448,332.556885 303.826935,331.001038 
	C304.199371,330.608459 304.571808,330.215851 305.550079,329.568176 
	C306.834625,327.907745 308.119171,326.247314 309.494507,324.468109 
	C309.494507,324.468109 309.583405,324.347961 310.180756,324.257385 
	C311.163635,322.867462 312.146515,321.477539 313.061676,319.997406 
	C313.061676,319.997406 313.089081,320.106842 313.652313,319.721008 
M317.849487,368.249420 
	C317.849487,368.249420 317.782593,368.261505 317.909210,367.438751 
	C317.123260,366.628052 316.468414,365.593140 315.529510,365.044006 
	C310.409698,362.049835 304.932068,363.943573 299.566162,363.964996 
	C278.919830,364.047424 258.273010,363.984039 237.626404,364.005127 
	C232.470444,364.010406 227.973038,365.486267 224.628311,370.630890 
	C215.352112,376.832642 210.561737,385.604797 208.944931,396.574585 
	C206.215195,415.095337 203.084625,433.556976 199.959488,452.683044 
	C199.960968,453.121613 199.962448,453.560150 199.814636,454.301056 
	C199.814636,454.301056 199.873795,454.633026 199.334381,455.276337 
	C197.496140,466.780731 195.614563,478.278656 193.893051,489.800476 
	C193.737122,490.844116 194.611725,492.041748 195.650940,493.688477 
	C196.302948,493.793152 196.954926,493.989380 197.606964,493.989532 
	C248.079514,494.003448 298.552063,494.012207 349.024536,493.944458 
	C350.331055,493.942688 351.636414,493.090637 352.843872,492.353333 
	C352.843872,492.353333 352.907196,492.061707 353.491302,491.573853 
	C354.288513,484.609467 357.265472,477.488861 351.260498,471.140656 
	C349.760071,469.554413 349.209686,467.069489 348.017609,464.240143 
	C347.942932,463.197296 347.868256,462.154480 348.422333,460.624390 
	C348.250305,457.306885 348.176147,453.978699 347.817810,450.681458 
	C347.751740,450.073456 346.535492,449.590485 345.464081,448.615295 
	C345.403595,448.046753 345.343109,447.478180 345.731049,446.321808 
	C345.119934,443.223328 344.508820,440.124847 343.440643,436.399963 
	C341.584320,424.987946 339.546753,413.601624 337.921600,402.156799 
	C336.224884,390.208191 332.841095,379.224152 323.052368,370.782806 
	C322.806122,366.908447 319.951111,368.281982 317.849487,368.249420 
M456.700867,347.587311 
	C457.790955,338.725647 458.881073,329.864014 460.200592,320.380859 
	C460.207611,319.942200 460.214630,319.503510 460.643005,318.390228 
	C461.781342,308.592682 462.919678,298.795105 464.380859,288.244873 
	C467.314209,265.303833 470.404114,242.381210 473.104858,219.412827 
	C474.205841,210.049286 468.825317,203.056335 460.651550,201.999268 
	C451.678131,200.838791 444.597870,206.281479 443.191650,215.809525 
	C439.377625,241.652115 435.728912,267.519043 431.975922,293.370697 
	C428.773590,315.429016 425.425049,337.466705 422.362366,359.544189 
	C421.739624,364.033203 419.640289,365.294373 415.410583,365.235504 
	C402.415039,365.054596 389.359497,365.923157 376.432709,364.963501 
	C362.796478,363.951172 352.073334,368.757233 342.767273,377.956177 
	C341.804077,378.908356 340.942017,380.779205 341.179840,382.000427 
	C343.018097,391.440155 345.332611,400.788116 347.125122,410.235535 
	C349.570709,423.124817 351.685333,436.076904 353.874695,449.868774 
	C356.252716,464.238800 358.630707,478.608856 361.576050,493.595184 
	C363.382599,493.734161 365.188995,493.992310 366.995697,493.994110 
	C389.953857,494.017120 412.912231,493.948151 435.870056,494.039154 
	C441.318848,494.060730 446.763824,494.681488 452.215179,494.787201 
	C453.121155,494.804718 454.050995,493.588379 455.068726,492.016571 
	C455.070862,451.304474 455.025085,410.592285 455.119507,369.880402 
	C455.136414,362.598846 455.733154,355.318573 456.004486,347.999329 
	C456.004486,347.999329 456.041412,348.057861 456.700867,347.587311 
M92.819313,357.702362 
	C94.791779,402.667480 96.764252,447.632599 98.720032,492.217224 
	C99.983704,492.669373 100.289566,492.874237 100.595795,492.874786 
	C127.588676,492.924164 154.581909,492.901215 181.574097,493.059082 
	C185.242767,493.080536 185.506592,490.815735 185.908386,488.319946 
	C187.148911,480.614105 188.334869,472.899384 189.586884,465.195435 
	C193.397064,441.750763 197.189346,418.303131 201.068863,394.869904 
	C202.826645,384.252441 206.963028,374.935242 215.443878,367.725037 
	C217.409515,366.053955 218.783844,362.855865 219.082001,360.208618 
	C220.029266,351.797699 220.642578,343.321136 220.811172,334.858490 
	C220.978653,326.451294 221.949631,318.072174 219.070541,309.665833 
	C215.496582,299.230438 215.642792,288.376678 218.931046,277.757599 
	C220.392639,273.037567 223.465363,268.544403 223.815292,263.801300 
	C225.051285,247.048172 225.543823,230.235214 226.072617,213.437210 
	C226.302261,206.142029 220.939865,200.398529 214.168198,199.967407 
	C206.668442,199.489929 200.418365,204.548508 199.886520,212.133514 
	C198.781952,227.886948 197.895798,243.657425 197.086212,259.429443 
	C195.610977,288.169495 194.047623,316.908234 193.008499,345.665131 
	C192.767548,352.333282 189.903259,355.855835 184.454895,358.836639 
	C172.459381,365.399384 159.542603,365.893646 146.559555,364.677429 
	C138.126740,363.887421 129.840271,361.366211 123.170219,355.623047 
	C121.598587,354.269836 120.221008,351.932251 119.999481,349.911041 
	C119.312073,343.639160 119.244484,337.300446 118.899635,330.989685 
	C117.293564,301.598663 115.686874,272.207672 114.054779,242.818054 
	C113.474083,232.361298 113.213455,221.865097 112.061897,211.469391 
	C111.303276,204.620850 106.081680,200.277740 100.157913,199.975174 
	C91.850288,199.550812 85.669502,205.212051 86.019249,213.737579 
	C87.103104,240.157806 88.481560,266.565948 89.744812,292.978821 
	C90.761497,314.236237 91.776901,335.493713 92.819313,357.702362 
M53.073250,250.635376 
	C57.957405,244.617249 61.774128,236.896561 67.988625,233.000351 
	C76.257378,227.816254 79.096558,222.496826 78.143410,212.888611 
	C77.081497,202.184128 86.494698,192.719589 96.801567,191.957336 
	C108.679115,191.078934 118.234703,198.382782 120.088051,209.802338 
	C120.508324,212.391922 120.780373,215.005585 121.099922,217.449646 
	C144.622131,217.449646 167.847305,217.449646 191.285004,217.449646 
	C191.453476,215.624512 191.664215,213.811737 191.781662,211.992920 
	C192.532623,200.362518 201.578156,191.787872 213.070908,191.835159 
	C224.520218,191.882263 233.642456,200.567673 234.187729,212.151810 
	C234.367401,215.968994 233.831421,219.825394 234.101028,223.629974 
	C234.203583,225.077332 235.347702,226.807007 236.536728,227.759048 
	C241.438797,231.684021 246.526154,235.379089 251.582413,239.108505 
	C252.433823,239.736481 253.556641,240.664673 254.403458,240.527100 
	C262.651367,239.187134 270.867249,237.649796 279.313324,236.128891 
	C279.701294,228.320801 276.345764,212.657639 272.632721,205.725983 
	C261.314026,184.595810 244.069565,170.974182 220.868866,164.995483 
	C196.419189,158.694931 171.445206,158.600952 146.444672,158.952423 
	C124.587090,159.259705 102.775726,160.343475 82.029953,168.037262 
	C58.597336,176.727493 42.480431,192.860336 35.412128,217.110306 
	C31.346584,231.058411 31.019209,245.430267 33.655483,259.677124 
	C35.345669,268.811188 38.069672,277.753937 40.472279,287.349701 
	C44.852867,274.513916 48.811432,262.914703 53.073250,250.635376 
M400.050781,341.885590 
	C404.543182,340.725586 409.054840,339.634277 413.521179,338.381409 
	C416.477356,337.552124 417.839508,335.765045 418.297760,332.383667 
	C421.491669,308.815643 425.057953,285.298218 428.292816,261.735413 
	C428.503174,260.203003 427.391968,257.928009 426.154785,256.843445 
	C411.141876,243.682556 387.841431,241.637146 370.687103,251.786087 
	C352.589813,262.492859 343.463074,283.359375 347.548920,303.468170 
	C351.931610,325.037811 372.652679,344.324646 400.050781,341.885590 
M125.538528,256.241119 
	C124.709183,258.081940 123.312935,259.882477 123.178604,261.772675 
	C122.957260,264.887360 123.621147,268.056335 123.791626,271.208893 
	C124.833244,290.471222 125.779274,309.739197 126.966599,328.992371 
	C127.071739,330.697296 128.254837,332.956787 129.649582,333.865967 
	C145.174850,343.986145 161.477127,344.553558 178.020065,336.733612 
	C180.836304,335.402374 184.650070,332.384644 184.845398,329.897980 
	C186.628311,307.200226 187.774750,284.450562 188.880829,261.705048 
	C188.969482,259.882141 187.890137,257.317596 186.479919,256.210358 
	C167.948288,241.660019 144.931244,241.587463 125.538528,256.241119 
M182.514053,243.894653 
	C184.843994,245.255035 187.173920,246.615417 189.776962,248.135269 
	C190.180557,240.343933 190.546982,233.270340 190.929367,225.888550 
	C167.283356,225.888550 144.256546,225.888550 121.186867,225.888550 
	C121.609261,233.700165 121.983177,240.615280 122.391121,248.159531 
	C141.716675,235.750885 161.374268,233.504776 182.514053,243.894653 
M153.566559,357.173248 
	C162.493652,357.623016 171.078690,356.329773 179.332565,352.686279 
	C183.772751,350.726196 185.731628,347.873230 184.298309,342.703461 
	C165.502945,352.542389 146.606400,352.609161 127.898308,342.757294 
	C126.368599,348.716705 129.052078,351.745331 133.764160,352.993500 
	C139.977371,354.639252 146.315521,355.813324 153.566559,357.173248 
M232.728973,250.391022 
	C232.809494,251.443512 232.889999,252.496017 232.979919,253.671280 
	C237.259995,250.417099 241.193634,247.426315 245.803833,243.921158 
	C241.768982,240.886917 237.987991,238.043610 234.207001,235.200287 
	C233.727844,235.528305 233.248672,235.856323 232.769516,236.184341 
	C232.769516,240.656326 232.769516,245.128296 232.728973,250.391022 
z"/>
<path fill="#423531" opacity="1.000000" stroke="none" 
	d="
M284.531342,1.000001 
	C285.442322,3.655187 286.480927,6.366678 286.236328,8.956996 
	C283.248627,40.596523 280.079651,72.218971 276.942169,103.844307 
	C275.562408,117.751961 274.087769,131.650528 272.785095,145.565292 
	C272.402008,149.657486 270.599243,151.547089 266.377930,151.229797 
	C263.397308,151.005768 260.370148,150.981216 257.393066,151.225235 
	C252.498581,151.626404 251.192215,149.218964 250.888306,144.721863 
	C247.802002,99.054466 244.522507,53.400131 241.421524,7.733686 
	C241.288956,5.781390 242.369522,3.746714 242.942474,1.375206 
	C256.687561,1.000000 270.375122,1.000000 284.531342,1.000001 
M275.746521,36.114311 
	C276.549652,27.244316 277.352783,18.374321 278.174927,9.294535 
	C268.397522,9.294535 259.315430,9.294535 249.551514,9.294535 
	C252.658691,54.036922 255.741348,98.426270 258.846802,143.143616 
	C261.386353,143.027145 263.102600,142.948441 264.852844,142.868164 
	C265.957092,132.213074 267.026611,122.121719 268.044647,112.025169 
	C270.565704,87.021744 273.063232,62.015938 275.746521,36.114311 
z"/>
<path fill="#423531" opacity="1.000000" stroke="none" 
	d="
M374.730591,166.383331 
	C361.835388,156.012146 362.093903,158.910141 371.119202,145.465225 
	C395.421967,109.261566 419.808075,73.113853 444.166840,36.947784 
	C448.079742,31.138210 449.053711,30.985472 454.805847,35.144356 
	C463.032104,41.092083 471.274323,47.017860 479.480438,52.993229 
	C484.184662,56.418694 484.407074,58.044098 480.596954,62.159275 
	C448.464630,96.864250 416.267059,131.508957 384.219879,166.292267 
	C380.881470,169.915726 378.196899,169.704041 374.730591,166.383331 
M397.970947,139.970413 
	C397.970947,139.970413 397.892090,139.949829 398.403015,139.733475 
	C398.575897,139.417038 398.748779,139.100586 399.150818,138.254288 
	C399.973694,137.453018 400.796570,136.651749 402.210205,135.733643 
	C402.425171,135.412369 402.640137,135.091095 402.818573,134.865067 
	C402.818573,134.865067 402.759369,134.781998 403.503845,134.863815 
	C404.662659,133.235733 405.821503,131.607651 407.260437,129.374741 
	C429.098877,105.808800 450.937317,82.242859 473.126953,58.297943 
	C465.463623,52.813274 458.062012,47.515919 450.434265,42.056721 
	C424.884979,80.026360 399.524475,117.715439 373.965424,155.699615 
	C375.768250,157.031265 377.324707,158.180969 379.668518,159.912231 
	C382.456238,156.797119 385.098358,153.844681 388.498322,150.902939 
	C391.299530,149.945679 393.474854,148.505310 392.998993,145.000244 
	C392.998993,145.000244 393.041321,145.018402 393.471313,144.812225 
	C393.742859,144.621338 393.924103,144.366302 394.218445,143.469955 
	C395.098083,142.631760 395.977753,141.793549 397.365326,140.772125 
	C397.559448,140.478851 397.753601,140.185577 397.970947,139.970413 
z"/>
<path fill="#433531" opacity="1.000000" stroke="none" 
	d="
M88.387222,48.583679 
	C104.966324,74.321083 121.332237,99.764931 137.696457,125.209877 
	C141.125854,130.542297 140.978668,131.418945 135.964355,135.450226 
	C133.242981,137.638107 130.367310,139.657990 127.816895,142.028687 
	C124.500702,145.111191 121.903664,144.573944 118.937469,141.421463 
	C103.087036,124.575592 87.120911,107.838577 71.196274,91.062508 
	C60.772381,80.081276 50.335693,69.112137 39.936028,58.108009 
	C35.756401,53.685444 35.783005,52.372211 40.160561,48.329647 
	C48.595943,40.539783 57.055267,32.775356 65.557411,25.058493 
	C69.245514,21.711027 71.275696,21.987032 73.899101,26.047886 
	C78.679535,33.447678 83.417664,40.874794 88.387222,48.583679 
M48.378086,55.136509 
	C50.176914,57.101192 51.948006,59.092133 53.778801,61.026566 
	C75.977219,84.481674 98.202202,107.911713 120.358871,131.406174 
	C122.332809,133.499298 123.718979,135.308090 126.821678,132.731949 
	C129.714020,130.330475 130.631027,128.645813 128.262390,125.018181 
	C111.159264,98.824318 94.320564,72.457870 77.378418,46.158768 
	C74.632050,41.895615 71.788239,37.695244 68.785095,33.157024 
	C61.593185,39.670658 54.911591,45.662491 48.346153,51.778999 
	C47.808006,52.280342 48.060707,53.630585 48.378086,55.136509 
z"/>
<path fill="#403933" opacity="1.000000" stroke="none" 
	d="
M361.058502,70.106003 
	C354.767853,80.712372 348.629669,90.985420 342.526703,101.279381 
	C340.997192,103.859245 339.189941,106.480621 335.902618,104.569359 
	C332.532990,102.610214 334.112396,99.818436 335.643280,97.242233 
	C346.765930,78.525124 357.857483,59.789497 368.937531,41.047115 
	C370.485474,38.428726 372.383179,35.970634 375.609100,37.969906 
	C378.890167,40.003330 377.299866,42.861877 375.798553,45.379887 
	C370.946869,53.517277 366.083099,61.647461 361.058502,70.106003 
z"/>
<path fill="#403932" opacity="1.000000" stroke="none" 
	d="
M175.901291,88.175781 
	C169.114304,72.047806 162.488129,56.265980 155.767822,40.524334 
	C154.545822,37.661877 153.708939,34.718647 157.128510,33.275318 
	C160.725693,31.757032 161.951553,34.797543 163.107086,37.537319 
	C171.564941,57.590778 180.060913,77.628197 188.567169,97.661179 
	C189.754074,100.456490 190.619522,103.427666 187.095291,104.857307 
	C183.837326,106.178947 182.322601,103.517899 181.222168,100.956520 
	C179.450851,96.833672 177.756607,92.677704 175.901291,88.175781 
z"/>
<path fill="#403934" opacity="1.000000" stroke="none" 
	d="
M478.843201,144.049164 
	C481.306305,147.131363 480.680084,149.254990 477.668182,151.223236 
	C465.288208,159.313461 452.989410,167.527924 440.665588,175.703979 
	C438.148682,177.373795 435.248596,178.070068 434.054688,174.830460 
	C433.499420,173.323929 434.933533,170.019592 436.455811,168.980637 
	C448.532043,160.738342 460.808624,152.785690 473.139008,144.925018 
	C474.580719,144.005936 476.723358,144.186417 478.843201,144.049164 
z"/>
<path fill="#413A35" opacity="1.000000" stroke="none" 
	d="
M50.863716,132.221497 
	C56.334511,135.069702 61.613983,137.524750 66.528397,140.569107 
	C68.042725,141.507202 69.658836,144.312759 69.305580,145.809402 
	C68.578255,148.890900 65.700829,148.765137 63.210648,147.524933 
	C54.310902,143.092468 45.354721,138.753372 36.667255,133.933121 
	C35.117973,133.073486 34.746342,130.091385 33.830940,128.089325 
	C35.996826,127.692093 38.416981,126.486198 40.274323,127.070213 
	C43.861332,128.198105 47.130749,130.336044 50.863716,132.221497 
z"/>
<path fill="#DB4E50" opacity="1.000000" stroke="none" 
	d="
M92.806091,357.226746 
	C91.776901,335.493713 90.761497,314.236237 89.744812,292.978821 
	C88.481560,266.565948 87.103104,240.157806 86.019249,213.737579 
	C85.669502,205.212051 91.850288,199.550812 100.157913,199.975174 
	C106.081680,200.277740 111.303276,204.620850 112.061897,211.469391 
	C113.213455,221.865097 113.474083,232.361298 114.054779,242.818054 
	C115.686874,272.207672 117.293564,301.598663 118.899635,330.989685 
	C119.244484,337.300446 119.312073,343.639160 119.999481,349.911041 
	C120.221008,351.932251 121.598587,354.269836 123.170219,355.623047 
	C129.840271,361.366211 138.126740,363.887421 146.559555,364.677429 
	C159.542603,365.893646 172.459381,365.399384 184.454895,358.836639 
	C189.903259,355.855835 192.767548,352.333282 193.008499,345.665131 
	C194.047623,316.908234 195.610977,288.169495 197.086212,259.429443 
	C197.895798,243.657425 198.781952,227.886948 199.886520,212.133514 
	C200.418365,204.548508 206.668442,199.489929 214.168198,199.967407 
	C220.939865,200.398529 226.302261,206.142029 226.072617,213.437210 
	C225.543823,230.235214 225.051285,247.048172 223.815292,263.801300 
	C223.465363,268.544403 220.392639,273.037567 218.931046,277.757599 
	C215.642792,288.376678 215.496582,299.230438 219.070541,309.665833 
	C221.949631,318.072174 220.978653,326.451294 220.811172,334.858490 
	C220.642578,343.321136 220.029266,351.797699 219.082001,360.208618 
	C218.783844,362.855865 217.409515,366.053955 215.443878,367.725037 
	C206.963028,374.935242 202.826645,384.252441 201.068863,394.869904 
	C197.189346,418.303131 193.397064,441.750763 189.586884,465.195435 
	C188.334869,472.899384 187.148911,480.614105 185.908386,488.319946 
	C185.506592,490.815735 185.242767,493.080536 181.574097,493.059082 
	C154.581909,492.901215 127.588676,492.924164 100.595795,492.874786 
	C100.289566,492.874237 99.983704,492.669373 98.720032,492.217224 
	C96.764252,447.632599 94.791779,402.667480 92.806091,357.226746 
z"/>
<path fill="#FEC05A" opacity="1.000000" stroke="none" 
	d="
M460.221680,319.064850 
	C460.214630,319.503510 460.207611,319.942200 459.700104,320.775085 
	C458.862549,321.506042 458.259735,321.819153 458.227417,322.182922 
	C457.461548,330.804596 456.757111,339.431732 456.041443,348.057861 
	C456.041412,348.057861 456.004486,347.999329 455.634430,348.017578 
	C454.577271,349.059479 453.297546,350.087311 453.304779,351.106049 
	C453.337494,355.729279 453.809418,360.347687 453.946899,364.973053 
	C453.983337,366.198608 453.489532,367.477295 453.066376,368.670288 
	C452.462738,370.372131 451.099426,372.015350 451.093536,373.687225 
	C450.975128,407.313202 451.003784,440.939697 451.011230,474.566071 
	C451.011444,475.561432 450.708435,477.106140 451.211975,477.467255 
	C456.314880,481.126984 452.334351,486.181030 454.170105,490.893036 
	C449.332062,491.303680 445.245880,491.932556 441.156982,491.950653 
	C418.850800,492.049255 396.543976,491.997559 374.237366,491.997528 
	C364.162964,491.997498 363.833588,492.083130 361.332428,482.463501 
	C359.390594,474.995148 358.510040,467.256592 356.945282,459.682007 
	C356.198975,456.069366 354.958527,452.558838 353.941864,449.002045 
	C351.685333,436.076904 349.570709,423.124817 347.125122,410.235535 
	C345.332611,400.788116 343.018097,391.440155 341.179840,382.000427 
	C340.942017,380.779205 341.804077,378.908356 342.767273,377.956177 
	C352.073334,368.757233 362.796478,363.951172 376.432709,364.963501 
	C389.359497,365.923157 402.415039,365.054596 415.410583,365.235504 
	C419.640289,365.294373 421.739624,364.033203 422.362366,359.544189 
	C425.425049,337.466705 428.773590,315.429016 431.975922,293.370697 
	C435.728912,267.519043 439.377625,241.652115 443.191650,215.809525 
	C444.597870,206.281479 451.678131,200.838791 460.651550,201.999268 
	C468.825317,203.056335 474.205841,210.049286 473.104858,219.412827 
	C470.404114,242.381210 467.314209,265.303833 463.871613,288.798309 
	C462.241669,295.926941 460.921906,302.476929 460.084930,309.088043 
	C459.671265,312.355499 460.147858,315.735687 460.221680,319.064850 
z"/>
<path fill="#8BCB8F" opacity="1.000000" stroke="none" 
	d="
M345.282654,446.909637 
	C345.343109,447.478180 345.403595,448.046753 345.647644,449.269073 
	C345.897217,452.247620 345.963196,454.572418 346.094727,457.116211 
	C346.299377,457.620667 346.511932,457.832214 346.877136,458.301910 
	C346.957275,459.086853 346.958252,459.539856 346.679993,460.275696 
	C347.057495,466.255981 347.717316,471.953033 348.369965,477.650970 
	C348.892120,482.209869 349.405579,486.769806 349.998993,491.999969 
	C347.431702,491.999969 345.483795,491.999969 343.535919,491.999969 
	C297.609436,491.999573 251.682922,491.988922 205.756485,492.034637 
	C203.835709,492.036530 201.915451,492.563385 199.658478,492.899963 
	C198.870117,492.920502 198.418213,492.886749 197.726685,492.575592 
	C194.625977,489.001190 195.513000,486.190613 197.951889,484.472137 
	C197.810898,481.669037 197.483017,479.658447 197.650833,477.690094 
	C198.306747,469.997162 199.119400,462.317566 199.873795,454.633026 
	C199.873795,454.633026 199.814636,454.301056 200.117447,454.020294 
	C200.321060,453.174194 200.221848,452.608826 200.122620,452.043488 
	C203.084625,433.556976 206.215195,415.095337 208.944931,396.574585 
	C210.561737,385.604797 215.352112,376.832642 225.191620,370.297180 
	C229.981430,368.575012 234.166550,366.151764 238.441727,365.980835 
	C255.198227,365.310852 271.983459,365.371796 288.757416,365.120453 
	C298.566284,364.973480 308.358063,364.896820 317.782593,368.261505 
	C317.782593,368.261505 317.849487,368.249420 317.989502,368.513336 
	C319.692169,369.662262 321.254852,370.547272 322.817535,371.432251 
	C332.841095,379.224152 336.224884,390.208191 337.921600,402.156799 
	C339.546753,413.601624 341.584320,424.987946 343.655243,437.141235 
	C344.340759,440.891571 344.811707,443.900604 345.282654,446.909637 
z"/>
<path fill="#F9E0AF" opacity="1.000000" stroke="none" 
	d="
M52.921623,250.975433 
	C48.811432,262.914703 44.852867,274.513916 40.472279,287.349701 
	C38.069672,277.753937 35.345669,268.811188 33.655483,259.677124 
	C31.019209,245.430267 31.346584,231.058411 35.412128,217.110306 
	C42.480431,192.860336 58.597336,176.727493 82.029953,168.037262 
	C102.775726,160.343475 124.587090,159.259705 146.444672,158.952423 
	C171.445206,158.600952 196.419189,158.694931 220.868866,164.995483 
	C244.069565,170.974182 261.314026,184.595810 272.632721,205.725983 
	C276.345764,212.657639 279.701294,228.320801 279.313324,236.128891 
	C270.867249,237.649796 262.651367,239.187134 254.403458,240.527100 
	C253.556641,240.664673 252.433823,239.736481 251.582413,239.108505 
	C246.526154,235.379089 241.438797,231.684021 236.536728,227.759048 
	C235.347702,226.807007 234.203583,225.077332 234.101028,223.629974 
	C233.831421,219.825394 234.367401,215.968994 234.187729,212.151810 
	C233.642456,200.567673 224.520218,191.882263 213.070908,191.835159 
	C201.578156,191.787872 192.532623,200.362518 191.781662,211.992920 
	C191.664215,213.811737 191.453476,215.624512 191.285004,217.449646 
	C167.847305,217.449646 144.622131,217.449646 121.099922,217.449646 
	C120.780373,215.005585 120.508324,212.391922 120.088051,209.802338 
	C118.234703,198.382782 108.679115,191.078934 96.801567,191.957336 
	C86.494698,192.719589 77.081497,202.184128 78.143410,212.888611 
	C79.096558,222.496826 76.257378,227.816254 67.988625,233.000351 
	C61.774128,236.896561 57.957405,244.617249 52.921623,250.975433 
M131.056244,186.280823 
	C136.482452,195.666519 144.394287,202.737518 152.616425,209.538818 
	C155.073257,211.571075 157.216995,211.685623 159.616547,209.427505 
	C163.485947,205.786148 168.014420,202.714340 171.319382,198.636063 
	C175.754837,193.162781 180.313141,187.383545 182.967484,180.969543 
	C186.744064,171.843781 178.543503,163.290375 168.921341,165.890076 
	C164.275620,167.145264 160.067078,170.018600 155.360840,172.304871 
	C154.080948,171.397263 152.490906,169.723969 150.547897,169.006500 
	C146.609863,167.552383 142.331238,165.290771 138.459824,165.727432 
	C128.852768,166.811020 125.914711,175.188019 131.056244,186.280823 
z"/>
<path fill="#8BCA8F" opacity="1.000000" stroke="none" 
	d="
M240.907990,257.785278 
	C257.089905,241.435562 288.585907,241.423737 305.228516,257.646393 
	C318.494293,270.577393 323.718781,285.979980 319.737152,304.845825 
	C319.297821,306.000031 319.204773,306.560852 319.111755,307.121674 
	C319.111755,307.121674 319.075104,307.028534 318.807800,307.150208 
	C316.978851,309.308655 314.500458,311.042511 316.258972,314.176392 
	C316.258972,314.176392 316.190247,314.006500 315.872498,314.163116 
	C314.732849,316.248779 313.910950,318.177795 313.089081,320.106842 
	C313.089081,320.106842 313.061676,319.997406 312.730469,320.044861 
	C311.460632,321.510834 310.522003,322.929382 309.583405,324.347961 
	C309.583405,324.347961 309.494507,324.468109 309.078308,324.354065 
	C305.222382,324.635864 304.962982,327.149445 304.944244,329.823273 
	C304.571808,330.215851 304.199371,330.608459 303.227875,330.937103 
	C299.105621,330.359375 295.971252,330.377319 296.476135,335.372192 
	C296.476135,335.372192 296.375244,335.399078 295.992798,335.300476 
	C295.075043,335.796112 294.539764,336.390289 294.004456,336.984497 
	C294.004456,336.984497 293.764709,337.169403 293.192352,337.119354 
	C291.425293,337.741791 290.230591,338.414307 289.035889,339.086792 
	C288.534424,339.345306 288.032959,339.603790 286.933289,339.588318 
	C276.461609,339.254761 266.588196,339.195190 256.366516,339.103058 
	C250.719147,335.937439 245.419968,332.804352 240.120804,329.671295 
	C227.238815,316.513672 221.995117,301.028503 226.361450,282.370209 
	C230.688126,279.465576 228.973984,275.288635 229.948471,271.930786 
	C229.948471,271.930786 229.992691,271.990570 230.218567,271.835205 
	C230.627441,271.125946 230.810440,270.572021 230.993439,270.018097 
	C231.028091,269.836487 231.062729,269.654907 231.583130,269.230408 
	C236.392059,266.339783 239.947830,263.086578 240.907990,257.785278 
z"/>
<path fill="#FDBF5A" opacity="1.000000" stroke="none" 
	d="
M399.594971,341.901428 
	C372.652679,344.324646 351.931610,325.037811 347.548920,303.468170 
	C343.463074,283.359375 352.589813,262.492859 370.687103,251.786087 
	C387.841431,241.637146 411.141876,243.682556 426.154785,256.843445 
	C427.391968,257.928009 428.503174,260.203003 428.292816,261.735413 
	C425.057953,285.298218 421.491669,308.815643 418.297760,332.383667 
	C417.839508,335.765045 416.477356,337.552124 413.521179,338.381409 
	C409.054840,339.634277 404.543182,340.725586 399.594971,341.901428 
z"/>
<path fill="#DA4E50" opacity="1.000000" stroke="none" 
	d="
M125.865234,256.045746 
	C144.931244,241.587463 167.948288,241.660019 186.479919,256.210358 
	C187.890137,257.317596 188.969482,259.882141 188.880829,261.705048 
	C187.774750,284.450562 186.628311,307.200226 184.845398,329.897980 
	C184.650070,332.384644 180.836304,335.402374 178.020065,336.733612 
	C161.477127,344.553558 145.174850,343.986145 129.649582,333.865967 
	C128.254837,332.956787 127.071739,330.697296 126.966599,328.992371 
	C125.779274,309.739197 124.833244,290.471222 123.791626,271.208893 
	C123.621147,268.056335 122.957260,264.887360 123.178604,261.772675 
	C123.312935,259.882477 124.709183,258.081940 125.865234,256.045746 
z"/>
<path fill="#FAFAF9" opacity="1.000000" stroke="none" 
	d="
M182.185181,243.712769 
	C161.374268,233.504776 141.716675,235.750885 122.391121,248.159531 
	C121.983177,240.615280 121.609261,233.700165 121.186867,225.888550 
	C144.256546,225.888550 167.283356,225.888550 190.929367,225.888550 
	C190.546982,233.270340 190.180557,240.343933 189.776962,248.135269 
	C187.173920,246.615417 184.843994,245.255035 182.185181,243.712769 
z"/>
<path fill="#F8BF68" opacity="1.000000" stroke="none" 
	d="
M353.908264,449.435425 
	C354.958527,452.558838 356.198975,456.069366 356.945282,459.682007 
	C358.510040,467.256592 359.390594,474.995148 361.332428,482.463501 
	C363.833588,492.083130 364.162964,491.997498 374.237366,491.997528 
	C396.543976,491.997559 418.850800,492.049255 441.156982,491.950653 
	C445.245880,491.932556 449.332062,491.303680 454.170105,490.893036 
	C452.334351,486.181030 456.314880,481.126984 451.211975,477.467255 
	C450.708435,477.106140 451.011444,475.561432 451.011230,474.566071 
	C451.003784,440.939697 450.975128,407.313202 451.093536,373.687225 
	C451.099426,372.015350 452.462738,370.372131 453.066376,368.670288 
	C453.489532,367.477295 453.983337,366.198608 453.946899,364.973053 
	C453.809418,360.347687 453.337494,355.729279 453.304779,351.106049 
	C453.297546,350.087311 454.577271,349.059479 455.663269,348.036774 
	C455.733154,355.318573 455.136414,362.598846 455.119507,369.880402 
	C455.025085,410.592285 455.070862,451.304474 454.553955,492.508667 
	C423.029022,492.993469 392.018860,492.986176 361.008698,492.978882 
	C358.630707,478.608856 356.252716,464.238800 353.908264,449.435425 
z"/>
<path fill="#F6F6F4" opacity="1.000000" stroke="none" 
	d="
M153.083252,357.181702 
	C146.315521,355.813324 139.977371,354.639252 133.764160,352.993500 
	C129.052078,351.745331 126.368599,348.716705 127.898308,342.757294 
	C146.606400,352.609161 165.502945,352.542389 184.298309,342.703461 
	C185.731628,347.873230 183.772751,350.726196 179.332565,352.686279 
	C171.078690,356.329773 162.493652,357.623016 153.083252,357.181702 
z"/>
<path fill="#93C192" opacity="1.000000" stroke="none" 
	d="
M199.994934,492.845642 
	C201.915451,492.563385 203.835709,492.036530 205.756485,492.034637 
	C251.682922,491.988922 297.609436,491.999573 343.535919,491.999969 
	C345.483795,491.999969 347.431702,491.999969 349.998993,491.999969 
	C349.405579,486.769806 348.892120,482.209869 348.369965,477.650970 
	C347.717316,471.953033 347.057495,466.255981 346.804077,460.475891 
	C347.321930,460.698639 347.517365,460.938110 347.793579,461.111633 
	C347.868256,462.154480 347.942932,463.197296 348.109589,465.017944 
	C349.770111,474.551086 351.338654,483.306396 352.907227,492.061707 
	C352.907196,492.061707 352.843872,492.353333 352.439270,492.612549 
	C323.287384,492.918091 294.540131,492.998535 265.792847,492.999603 
	C243.860214,493.000427 221.927567,492.900635 199.994934,492.845642 
z"/>
<path fill="#2D3B21" opacity="1.000000" stroke="none" 
	d="
M199.658478,492.899963 
	C221.927567,492.900635 243.860214,493.000427 265.792847,492.999603 
	C294.540131,492.998535 323.287384,492.918091 352.488464,492.753448 
	C351.636414,493.090637 350.331055,493.942688 349.024536,493.944458 
	C298.552063,494.012207 248.079514,494.003448 197.606964,493.989532 
	C196.954926,493.989380 196.302948,493.793152 195.696533,493.362549 
	C196.483521,492.975433 197.224899,492.914215 197.966293,492.852966 
	C198.418213,492.886749 198.870117,492.920502 199.658478,492.899963 
z"/>
<path fill="#323C27" opacity="1.000000" stroke="none" 
	d="
M317.845886,367.850128 
	C308.358063,364.896820 298.566284,364.973480 288.757416,365.120453 
	C271.983459,365.371796 255.198227,365.310852 238.441727,365.980835 
	C234.166550,366.151764 229.981430,368.575012 225.390030,370.034760 
	C227.973038,365.486267 232.470444,364.010406 237.626404,364.005127 
	C258.273010,363.984039 278.919830,364.047424 299.566162,363.964996 
	C304.932068,363.943573 310.409698,362.049835 315.529510,365.044006 
	C316.468414,365.593140 317.123260,366.628052 317.845886,367.850128 
z"/>
<path fill="#F4F3F1" opacity="1.000000" stroke="none" 
	d="
M232.749237,249.995651 
	C232.769516,245.128296 232.769516,240.656326 232.769516,236.184341 
	C233.248672,235.856323 233.727844,235.528305 234.207001,235.200287 
	C237.987991,238.043610 241.768982,240.886917 245.803833,243.921158 
	C241.193634,247.426315 237.259995,250.417099 232.979919,253.671280 
	C232.889999,252.496017 232.809494,251.443512 232.749237,249.995651 
z"/>
<path fill="#45300F" opacity="1.000000" stroke="none" 
	d="
M361.292358,493.287048 
	C392.018860,492.986176 423.029022,492.993469 454.504486,492.971466 
	C454.050995,493.588379 453.121155,494.804718 452.215179,494.787201 
	C446.763824,494.681488 441.318848,494.060730 435.870056,494.039154 
	C412.912231,493.948151 389.953857,494.017120 366.995697,493.994110 
	C365.188995,493.992310 363.382599,493.734161 361.292358,493.287048 
z"/>
<path fill="#363F29" opacity="1.000000" stroke="none" 
	d="
M353.199280,491.817780 
	C351.338654,483.306396 349.770111,474.551086 348.212097,465.396698 
	C349.209686,467.069489 349.760071,469.554413 351.260498,471.140656 
	C357.265472,477.488861 354.288513,484.609467 353.199280,491.817780 
z"/>
<path fill="#93C192" opacity="1.000000" stroke="none" 
	d="
M197.726685,492.575592 
	C197.224899,492.914215 196.483521,492.975433 195.374939,493.102234 
	C194.611725,492.041748 193.737122,490.844116 193.893051,489.800476 
	C195.614563,478.278656 197.496140,466.780731 199.604095,454.954681 
	C199.119400,462.317566 198.306747,469.997162 197.650833,477.690094 
	C197.483017,479.658447 197.810898,481.669037 197.951889,484.472137 
	C195.513000,486.190613 194.625977,489.001190 197.726685,492.575592 
z"/>
<path fill="#93BB92" opacity="1.000000" stroke="none" 
	d="
M256.714752,339.135620 
	C266.588196,339.195190 276.461609,339.254761 286.637634,339.568848 
	C279.429565,340.463776 271.918854,341.104156 263.703033,341.543640 
	C260.903534,340.607056 258.809143,339.871338 256.714752,339.135620 
z"/>
<path fill="#333E27" opacity="1.000000" stroke="none" 
	d="
M256.366516,339.103027 
	C258.809143,339.871338 260.903534,340.607056 263.273621,341.619690 
	C253.575668,342.475739 245.754776,338.654968 240.107239,330.045654 
	C245.419968,332.804352 250.719147,335.937439 256.366516,339.103027 
z"/>
<path fill="#F8BF68" opacity="1.000000" stroke="none" 
	d="
M460.432312,318.727539 
	C460.147858,315.735687 459.671265,312.355499 460.084930,309.088043 
	C460.921906,302.476929 462.241669,295.926941 463.710205,289.174652 
	C462.919678,298.795105 461.781342,308.592682 460.432312,318.727539 
z"/>
<path fill="#F8BF68" opacity="1.000000" stroke="none" 
	d="
M456.371155,347.822571 
	C456.757111,339.431732 457.461548,330.804596 458.227417,322.182922 
	C458.259735,321.819153 458.862549,321.506042 459.585388,321.085846 
	C458.881073,329.864014 457.790955,338.725647 456.371155,347.822571 
z"/>
<path fill="#96BC92" opacity="1.000000" stroke="none" 
	d="
M240.605560,257.940552 
	C239.947830,263.086578 236.392059,266.339783 231.728912,268.994507 
	C234.360336,265.366302 237.331741,261.731079 240.605560,257.940552 
z"/>
<path fill="#363F29" opacity="1.000000" stroke="none" 
	d="
M348.107971,460.868011 
	C347.517365,460.938110 347.321930,460.698639 347.083282,460.193024 
	C346.958252,459.539856 346.957275,459.086853 346.876953,458.056396 
	C346.618835,457.182739 346.362671,456.988861 346.029144,456.897186 
	C345.963196,454.572418 345.897217,452.247620 345.840698,449.486328 
	C346.535492,449.590485 347.751740,450.073456 347.817810,450.681458 
	C348.176147,453.978699 348.250305,457.306885 348.107971,460.868011 
z"/>
<path fill="#93BB92" opacity="1.000000" stroke="none" 
	d="
M296.800354,335.347107 
	C295.971252,330.377319 299.105621,330.359375 302.963623,331.023743 
	C301.240448,332.556885 299.182495,333.939453 296.800354,335.347107 
z"/>
<path fill="#96BC92" opacity="1.000000" stroke="none" 
	d="
M229.685593,272.163818 
	C228.973984,275.288635 230.688126,279.465576 226.501343,281.971924 
	C227.214737,278.785645 228.318726,275.591248 229.685593,272.163818 
z"/>
<path fill="#93BB92" opacity="1.000000" stroke="none" 
	d="
M305.247162,329.695740 
	C304.962982,327.149445 305.222382,324.635864 309.032898,324.413452 
	C308.119171,326.247314 306.834625,327.907745 305.247162,329.695740 
z"/>
<path fill="#363F29" opacity="1.000000" stroke="none" 
	d="
M345.506836,446.615723 
	C344.811707,443.900604 344.340759,440.891571 343.883759,437.454468 
	C344.508820,440.124847 345.119934,443.223328 345.506836,446.615723 
z"/>
<path fill="#93BB92" opacity="1.000000" stroke="none" 
	d="
M316.554108,313.995728 
	C314.500458,311.042511 316.978851,309.308655 318.853699,307.170197 
	C318.394348,309.317352 317.621796,311.566193 316.554108,313.995728 
z"/>
<path fill="#323C27" opacity="1.000000" stroke="none" 
	d="
M322.934937,371.107544 
	C321.254852,370.547272 319.692169,369.662262 317.978271,368.481262 
	C319.951111,368.281982 322.806122,366.908447 322.934937,371.107544 
z"/>
<path fill="#93BB92" opacity="1.000000" stroke="none" 
	d="
M309.882080,324.302673 
	C310.522003,322.929382 311.460632,321.510834 312.764343,320.089966 
	C312.146515,321.477539 311.163635,322.867462 309.882080,324.302673 
z"/>
<path fill="#93BB92" opacity="1.000000" stroke="none" 
	d="
M313.370697,319.913940 
	C313.910950,318.177795 314.732849,316.248779 315.915588,314.248077 
	C315.401733,316.024628 314.527039,317.872833 313.370697,319.913940 
z"/>
<path fill="#93BB92" opacity="1.000000" stroke="none" 
	d="
M289.388428,339.072937 
	C290.230591,338.414307 291.425293,337.741791 293.041168,337.111572 
	C292.221863,337.788910 290.981415,338.423981 289.388428,339.072937 
z"/>
<path fill="#93BB92" opacity="1.000000" stroke="none" 
	d="
M294.302856,336.953186 
	C294.539764,336.390289 295.075043,335.796112 295.943115,335.316650 
	C295.717682,335.928223 295.159454,336.425049 294.302856,336.953186 
z"/>
<path fill="#96BC92" opacity="1.000000" stroke="none" 
	d="
M230.764282,270.197571 
	C230.810440,270.572021 230.627441,271.125946 230.182281,271.827148 
	C230.125137,271.441956 230.330139,270.909515 230.764282,270.197571 
z"/>
<path fill="#93BB92" opacity="1.000000" stroke="none" 
	d="
M319.343262,306.943298 
	C319.204773,306.560852 319.297821,306.000031 319.613464,305.255005 
	C319.748962,305.635468 319.661896,306.200195 319.343262,306.943298 
z"/>
<path fill="#93C192" opacity="1.000000" stroke="none" 
	d="
M200.041061,452.363281 
	C200.221848,452.608826 200.321060,453.174194 200.192093,453.869141 
	C199.962448,453.560150 199.960968,453.121613 200.041061,452.363281 
z"/>
<path fill="#EF8CA5" opacity="1.000000" stroke="none" 
	d="
M275.658386,36.562702 
	C273.063232,62.015938 270.565704,87.021744 268.044647,112.025169 
	C267.026611,122.121719 265.957092,132.213074 264.852844,142.868164 
	C263.102600,142.948441 261.386353,143.027145 258.846802,143.143616 
	C255.741348,98.426270 252.658691,54.036922 249.551514,9.294535 
	C259.315430,9.294535 268.397522,9.294535 278.174927,9.294535 
	C277.352783,18.374321 276.549652,27.244316 275.658386,36.562702 
z"/>
<path fill="#EE8CA5" opacity="1.000000" stroke="none" 
	d="
M401.619476,135.850494 
	C400.796570,136.651749 399.973694,137.453018 398.790466,138.639801 
	C398.250763,139.333466 398.071411,139.641647 397.892090,139.949829 
	C397.892090,139.949829 397.970947,139.970413 397.701416,140.017120 
	C397.240417,140.361008 397.048920,140.658188 396.857391,140.955353 
	C395.977753,141.793549 395.098083,142.631760 393.877625,143.827332 
	C393.242981,144.386139 393.077820,144.664032 393.041321,145.018402 
	C393.041321,145.018402 392.998993,145.000244 392.713287,145.159546 
	C390.865234,147.176682 389.302887,149.034485 387.740509,150.892273 
	C385.098358,153.844681 382.456238,156.797119 379.668518,159.912231 
	C377.324707,158.180969 375.768250,157.031265 373.965424,155.699615 
	C399.524475,117.715439 424.884979,80.026360 450.434265,42.056721 
	C458.062012,47.515919 465.463623,52.813274 473.126953,58.297943 
	C450.937317,82.242859 429.098877,105.808800 406.822418,129.810944 
	C405.176056,131.758759 403.967712,133.270386 402.759399,134.782013 
	C402.759369,134.781998 402.818573,134.865067 402.559875,134.901611 
	C402.073914,135.242279 401.846710,135.546387 401.619476,135.850494 
z"/>
<path fill="#563236" opacity="1.000000" stroke="none" 
	d="
M388.119446,150.897614 
	C389.302887,149.034485 390.865234,147.176682 392.726135,145.178680 
	C393.474854,148.505310 391.299530,149.945679 388.119446,150.897614 
z"/>
<path fill="#563236" opacity="1.000000" stroke="none" 
	d="
M403.131622,134.822906 
	C403.967712,133.270386 405.176056,131.758759 406.682373,130.113342 
	C405.821503,131.607651 404.662659,133.235733 403.131622,134.822906 
z"/>
<path fill="#563236" opacity="1.000000" stroke="none" 
	d="
M398.147552,139.841644 
	C398.071411,139.641647 398.250763,139.333466 398.675903,138.904724 
	C398.748779,139.100586 398.575897,139.417038 398.147552,139.841644 
z"/>
<path fill="#563236" opacity="1.000000" stroke="none" 
	d="
M401.914856,135.792068 
	C401.846710,135.546387 402.073914,135.242279 402.578125,134.854004 
	C402.640137,135.091095 402.425171,135.412369 401.914856,135.792068 
z"/>
<path fill="#563236" opacity="1.000000" stroke="none" 
	d="
M393.256317,144.915314 
	C393.077820,144.664032 393.242981,144.386139 393.775940,144.115906 
	C393.924103,144.366302 393.742859,144.621338 393.256317,144.915314 
z"/>
<path fill="#563236" opacity="1.000000" stroke="none" 
	d="
M397.111359,140.863739 
	C397.048920,140.658188 397.240417,140.361008 397.689819,139.978058 
	C397.753601,140.185577 397.559448,140.478851 397.111359,140.863739 
z"/>
<path fill="#EE8CA5" opacity="1.000000" stroke="none" 
	d="
M48.162014,54.861446 
	C48.060707,53.630585 47.808006,52.280342 48.346153,51.778999 
	C54.911591,45.662491 61.593185,39.670658 68.785095,33.157024 
	C71.788239,37.695244 74.632050,41.895615 77.378418,46.158768 
	C94.320564,72.457870 111.159264,98.824318 128.262390,125.018181 
	C130.631027,128.645813 129.714020,130.330475 126.821678,132.731949 
	C123.718979,135.308090 122.332809,133.499298 120.358871,131.406174 
	C98.202202,107.911713 75.977219,84.481674 53.778801,61.026566 
	C51.948006,59.092133 50.176914,57.101192 48.162014,54.861446 
z"/>
<path fill="#93C192" opacity="1.000000" stroke="none" 
	d="
M346.094727,457.116211 
	C346.362671,456.988861 346.618835,457.182739 346.797791,457.724426 
	C346.511932,457.832214 346.299377,457.620667 346.094727,457.116211 
z"/>
<path fill="#43352A" opacity="1.000000" stroke="none" 
	d="
M130.895203,185.939301 
	C125.914711,175.188019 128.852768,166.811020 138.459824,165.727432 
	C142.331238,165.290771 146.609863,167.552383 150.547897,169.006500 
	C152.490906,169.723969 154.080948,171.397263 155.360840,172.304871 
	C160.067078,170.018600 164.275620,167.145264 168.921341,165.890076 
	C178.543503,163.290375 186.744064,171.843781 182.967484,180.969543 
	C180.313141,187.383545 175.754837,193.162781 171.319382,198.636063 
	C168.014420,202.714340 163.485947,205.786148 159.616547,209.427505 
	C157.216995,211.685623 155.073257,211.571075 152.616425,209.538818 
	C144.394287,202.737518 136.482452,195.666519 130.895203,185.939301 
M146.084717,193.926422 
	C146.084717,193.926422 146.099060,193.910431 146.048721,194.688354 
	C147.353912,195.464645 148.659119,196.240936 150.563446,197.310974 
	C152.387375,198.906006 154.211304,200.501038 156.209152,202.248154 
	C160.066711,198.591110 163.540497,195.297882 167.761642,191.993835 
	C168.491394,190.971634 169.221130,189.949432 170.070770,188.241745 
	C171.838242,185.293121 173.940964,182.480469 175.217529,179.332748 
	C175.772064,177.965393 175.161499,174.983841 174.126984,174.386688 
	C172.649887,173.534119 169.927124,173.517929 168.392624,174.351944 
	C164.802002,176.303452 161.425293,178.765610 158.300598,181.419678 
	C155.886383,183.470261 154.464600,182.745422 152.400421,180.962143 
	C149.425369,178.391937 146.209198,176.018311 142.803589,174.072433 
	C141.564041,173.364212 138.995163,173.518341 137.929840,174.383560 
	C136.875961,175.239487 136.263474,177.701004 136.687180,179.080521 
	C137.438477,181.526688 139.050537,183.730392 140.431900,185.955170 
	C141.895218,188.311905 143.509384,190.574982 145.224716,193.370102 
	C145.504501,193.557358 145.784302,193.744614 146.084717,193.926422 
z"/>
<path fill="#A62E37" opacity="1.000000" stroke="none" 
	d="
M145.057663,192.878952 
	C143.509384,190.574982 141.895218,188.311905 140.431900,185.955170 
	C139.050537,183.730392 137.438477,181.526688 136.687180,179.080521 
	C136.263474,177.701004 136.875961,175.239487 137.929840,174.383560 
	C138.995163,173.518341 141.564041,173.364212 142.803589,174.072433 
	C146.209198,176.018311 149.425369,178.391937 152.400421,180.962143 
	C154.464600,182.745422 155.886383,183.470261 158.300598,181.419678 
	C161.425293,178.765610 164.802002,176.303452 168.392624,174.351944 
	C169.927124,173.517929 172.649887,173.534119 174.126984,174.386688 
	C175.161499,174.983841 175.772064,177.965393 175.217529,179.332748 
	C173.940964,182.480469 171.838242,185.293121 169.736969,188.729385 
	C168.606857,190.146240 167.810577,191.075439 167.014282,192.004654 
	C163.540497,195.297882 160.066711,198.591110 156.209152,202.248154 
	C154.211304,200.501038 152.387375,198.906006 150.138641,196.862305 
	C148.508911,195.579224 147.303986,194.744827 146.099060,193.910431 
	C146.099060,193.910431 146.084717,193.926422 145.976410,193.696548 
	C145.597961,193.270767 145.327820,193.074860 145.057663,192.878952 
z"/>
<path fill="#592C28" opacity="1.000000" stroke="none" 
	d="
M146.073883,194.299393 
	C147.303986,194.744827 148.508911,195.579224 149.839081,196.715424 
	C148.659119,196.240936 147.353912,195.464645 146.073883,194.299393 
z"/>
<path fill="#592C28" opacity="1.000000" stroke="none" 
	d="
M167.387970,191.999237 
	C167.810577,191.075439 168.606857,190.146240 169.677017,189.072128 
	C169.221130,189.949432 168.491394,190.971634 167.387970,191.999237 
z"/>
<path fill="#592C28" opacity="1.000000" stroke="none" 
	d="
M145.141190,193.124527 
	C145.327820,193.074860 145.597961,193.270767 145.966110,193.699280 
	C145.784302,193.744614 145.504501,193.557358 145.141190,193.124527 
z"/>
</svg>